<svg width="16" height="16" viewBox="0 0 16 16" fill="none" xmlns="http://www.w3.org/2000/svg">
<path d="M2.88462 7.71597L2.88468 7.71591L2.87702 7.70846C2.79893 7.63248 2.75 7.52585 2.75 7.4V3.2C2.75 2.94821 2.94821 2.75 3.2 2.75H7.4C7.52683 2.75 7.63729 2.79995 7.71567 2.87833L13.1157 8.27833C13.1995 8.36216 13.25 8.47459 13.25 8.6C13.25 8.72585 13.2011 8.83248 13.123 8.90846L13.1229 8.90841L13.1157 8.91567L8.91567 13.1157C8.83036 13.201 8.71742 13.25 8.6 13.25C8.48535 13.25 8.36952 13.2029 8.27405 13.1114L2.88462 7.71597Z" stroke="#2563EB" stroke-width="1.5"/>
<circle cx="4.66667" cy="4.66667" r="0.666667" fill="#2563EB"/>
</svg>
